<?xml version="1.0" encoding="UTF-8" standalone="no"?>
<!-- Created with Inkscape (http://www.inkscape.org/) -->

<svg
   xmlns:osb="http://www.openswatchbook.org/uri/2009/osb"
   xmlns:dc="http://purl.org/dc/elements/1.1/"
   xmlns:cc="http://creativecommons.org/ns#"
   xmlns:rdf="http://www.w3.org/1999/02/22-rdf-syntax-ns#"
   xmlns:svg="http://www.w3.org/2000/svg"
   xmlns="http://www.w3.org/2000/svg"
   xmlns:sodipodi="http://sodipodi.sourceforge.net/DTD/sodipodi-0.dtd"
   xmlns:inkscape="http://www.inkscape.org/namespaces/inkscape"
   width="210mm"
   height="297mm"
   viewBox="0 0 744.09448819 1052.3622047"
   id="svg2"
   version="1.1"
   inkscape:version="0.91 r13725"
   inkscape:export-filename="/home/vikki/Downloads/extr/a.png"
   inkscape:export-xdpi="197.3"
   inkscape:export-ydpi="197.3"
   sodipodi:docname="drawing.svg">
  <defs
     id="defs4">
    <linearGradient
       id="linearGradient5663"
       osb:paint="solid">
      <stop
         style="stop-color:#000c00;stop-opacity:1;"
         offset="0"
         id="stop5665" />
    </linearGradient>
    <linearGradient
       id="linearGradient5657"
       osb:paint="solid">
      <stop
         style="stop-color:#000c00;stop-opacity:1;"
         offset="0"
         id="stop5659" />
    </linearGradient>
    <linearGradient
       id="linearGradient5627"
       osb:paint="solid">
      <stop
         style="stop-color:#000000;stop-opacity:1;"
         offset="0"
         id="stop5629" />
    </linearGradient>
    <linearGradient
       id="linearGradient5609"
       osb:paint="solid">
      <stop
         style="stop-color:#000000;stop-opacity:1;"
         offset="0"
         id="stop5611" />
    </linearGradient>
  </defs>
  <sodipodi:namedview
     id="base"
     pagecolor="#ffffff"
     bordercolor="#666666"
     borderopacity="1.0"
     inkscape:pageopacity="0.0"
     inkscape:pageshadow="2"
     inkscape:zoom="0.54277344"
     inkscape:cx="90.462165"
     inkscape:cy="399.32234"
     inkscape:document-units="px"
     inkscape:current-layer="layer1"
     showgrid="false"
     inkscape:window-width="1920"
     inkscape:window-height="1021"
     inkscape:window-x="0"
     inkscape:window-y="27"
     inkscape:window-maximized="1"
     inkscape:snap-text-baseline="true" />
  <metadata
     id="metadata7">
    <rdf:RDF>
      <cc:Work
         rdf:about="">
        <dc:format>image/svg+xml</dc:format>
        <dc:type
           rdf:resource="http://purl.org/dc/dcmitype/StillImage" />
        <dc:title></dc:title>
      </cc:Work>
    </rdf:RDF>
  </metadata>
  <g
     inkscape:label="Layer 1"
     inkscape:groupmode="layer"
     id="layer1">
    <path
       sodipodi:type="star"
       style="opacity:1;fill:none;fill-opacity:1;stroke:#0f0000;stroke-width:1.68599999;stroke-linecap:round;stroke-linejoin:round;stroke-miterlimit:4;stroke-dasharray:none;stroke-opacity:1"
       id="path5718"
       sodipodi:sides="3"
       sodipodi:cx="362.80966"
       sodipodi:cy="735.29205"
       sodipodi:r1="361.52167"
       sodipodi:r2="180.76083"
       sodipodi:arg1="2.6186539"
       sodipodi:arg2="3.6658514"
       inkscape:flatsided="true"
       inkscape:rounded="0"
       inkscape:randomized="0"
       d="M 49.603476,915.8462 363.04827,373.77046 675.77724,916.25949 Z"
       inkscape:transform-center-x="0.11930432"
       inkscape:transform-center-y="-90.277078" />
    <path
       sodipodi:type="star"
       style="opacity:1;fill:none;fill-opacity:1;stroke:#0f0000;stroke-width:1.68599999;stroke-linecap:round;stroke-linejoin:round;stroke-miterlimit:4;stroke-dasharray:none;stroke-opacity:1"
       id="path5718-4"
       sodipodi:sides="3"
       sodipodi:cx="777.6076"
       sodipodi:cy="1039.4655"
       sodipodi:r1="361.52167"
       sodipodi:r2="180.76083"
       sodipodi:arg1="2.6186539"
       sodipodi:arg2="3.6658514"
       inkscape:flatsided="true"
       inkscape:rounded="0"
       inkscape:randomized="0"
       d="M 464.40142,1220.0196 777.84622,677.94387 1090.5752,1220.4329 Z"
       inkscape:transform-center-x="0.11581975"
       inkscape:transform-center-y="80.262878"
       transform="matrix(0.97076812,0,0,-0.88907247,-392.48451,1191.0591)" />
    <text
       xml:space="preserve"
       style="font-style:normal;font-weight:normal;font-size:275.33007812px;line-height:125%;font-family:sans-serif;letter-spacing:0px;word-spacing:0px;fill:#ffffff;fill-opacity:1;stroke:none;stroke-width:1px;stroke-linecap:butt;stroke-linejoin:miter;stroke-opacity:1;"
       x="205.12631"
       y="389.56824"
       id="text5738"
       sodipodi:linespacing="125%"
       transform="scale(1.1994591,0.83370913)"><tspan
         sodipodi:role="line"
         id="tspan5740"
         x="205.12631"
         y="389.56824">E</tspan></text>
    <text
       xml:space="preserve"
       style="font-style:normal;font-weight:normal;font-size:211.83825684px;line-height:125%;font-family:sans-serif;letter-spacing:0px;word-spacing:0px;fill:#ffffff;fill-opacity:1;stroke:none;stroke-width:1px;stroke-linecap:butt;stroke-linejoin:miter;stroke-opacity:1;"
       x="271.36896"
       y="843.492"
       id="text5742"
       sodipodi:linespacing="125%"
       transform="scale(1.0119965,0.9881457)"><tspan
         sodipodi:role="line"
         id="tspan5744"
         x="271.36896"
         y="843.492">D</tspan></text>
    <path
       style="opacity:1;fill:#000000;fill-opacity:1;stroke:#0f0000;stroke-width:3.10626841;stroke-linecap:round;stroke-linejoin:round;stroke-miterlimit:4;stroke-dasharray:none;stroke-opacity:1"
       d="m 331.78487,536.21651 c -16.70302,-26.48956 -30.36912,-49.08944 -30.36912,-50.22197 0,-2.40652 60.35438,-107.7311 61.72004,-107.70779 0.50666,0.009 14.72198,24.11462 31.5896,53.56883 l 30.6684,53.55311 -30.27423,48.13966 c -16.65083,26.47681 -30.87979,48.74522 -31.6199,49.48532 -0.74011,0.74011 -15.01177,-20.32761 -31.71479,-46.81716 z"
       id="path5746"
       inkscape:connector-curvature="0" />
    <path
       style="opacity:1;fill:#000000;fill-opacity:1;stroke:#0f0000;stroke-width:3.10626841;stroke-linecap:round;stroke-linejoin:round;stroke-miterlimit:4;stroke-dasharray:none;stroke-opacity:1"
       d="M 179.66263,295.37428 61.594299,108.24533 212.51039,107.774 c 83.00385,-0.25924 218.27766,-0.25924 300.60847,0 l 149.69237,0.47133 -117.1353,186.44404 c -64.42443,102.54424 -117.54986,186.4592 -118.05651,186.47769 -0.50666,0.0184 -14.92334,-24.39515 -32.03707,-54.2526 -17.11372,-29.85745 -31.74338,-54.28626 -32.51033,-54.28626 -0.76695,0 -14.89354,23.42138 -31.39245,52.0475 -16.49891,28.62613 -30.88688,53.34801 -31.9733,54.93751 -1.5952,2.33388 -24.69478,-33.11857 -120.04364,-184.23893 z m 255.32634,19.21866 0,-10.13314 -61.72004,0 -61.72004,0 0,-29.47823 0,-29.47823 57.11407,0 57.11407,0 0,-10.13314 0,-10.13314 -57.11407,0 -57.11407,0 0,-23.95107 0,-23.95106 59.87765,0 59.87765,0 0,-10.13314 0,-10.13314 -76.45915,0 -76.45916,0 0,83.82872 0,83.82871 78.30155,0 78.30154,0 0,-10.13314 z"
       id="path5750"
       inkscape:connector-curvature="0" />
    <path
       style="opacity:1;fill:#000000;fill-opacity:1;stroke:#0f0000;stroke-width:3.10626841;stroke-linecap:round;stroke-linejoin:round;stroke-miterlimit:4;stroke-dasharray:none;stroke-opacity:1"
       d="m 53.614378,913.35008 c 0,-2.67946 244.052932,-422.49644 245.198862,-421.78821 0.74245,0.45885 15.1728,22.80192 32.06745,49.65127 16.89467,26.84936 31.27078,48.78124 31.94694,48.73753 0.67614,-0.0437 15.2106,-22.42875 32.2988,-49.74452 17.0882,-27.31576 31.59701,-49.65183 32.24181,-49.63569 0.6448,0.0161 53.81865,91.37754 118.16409,203.02535 64.34545,111.6478 119.28845,206.97825 122.09557,211.84544 l 5.10384,8.84942 -309.55868,0 c -170.25728,0 -309.558682,-0.42327 -309.558682,-0.94059 z m 321.067292,-82.7813 c 38.48658,-10.28649 55.00627,-35.70565 52.48315,-80.75686 -1.66469,-29.72366 -12.49152,-48.77909 -33.58294,-59.10654 -16.36961,-8.01541 -31.29486,-10.33039 -66.83328,-10.36617 l -31.78122,-0.032 0,77.66206 0,77.66205 34.5448,-1.11142 c 21.90607,-0.70479 38.43201,-2.15036 45.16949,-3.95113 z"
       id="path5754"
       inkscape:connector-curvature="0" />
    <path
       style="opacity:1;fill:#d38d5f;fill-opacity:1;stroke:#0f0000;stroke-width:3.10626841;stroke-linecap:round;stroke-linejoin:round;stroke-miterlimit:4;stroke-dasharray:none;stroke-opacity:1"
       d="M 360.62086,579.88247 C 356.41579,575.6774 336.1619,544.72999 316.8944,513.06958 l -16.23048,-26.66996 4.32858,-8.52299 c 7.03355,-13.84908 52.74666,-93.07908 55.07918,-95.46328 1.65558,-1.69225 2.81169,-1.69225 5.08365,0 1.6174,1.20471 15.96044,24.75967 31.87341,52.34435 23.05858,39.9714 28.57298,50.82605 27.16103,53.4643 -2.8968,5.41272 -57.5367,91.54412 -59.10836,93.17524 -0.79505,0.82512 -2.8023,0.14353 -4.46055,-1.51477 z"
       id="path5756"
       inkscape:connector-curvature="0" />
  </g>
</svg>
